<svg width="87" height="80" viewBox="0 0 87 80" fill="none" xmlns="http://www.w3.org/2000/svg">
<path d="M76.3111 65.4667C39.3041 81.6131 16.3436 68.1083 1.63896 59.8985C0.729545 59.3817 -0.816463 60.0199 0.525151 61.4323C5.42249 66.8767 21.4732 80 42.424 80C63.3892 80 75.8618 69.5159 77.4222 67.6824C78.9718 65.8662 77.8724 64.8673 76.3111 65.4667V65.4667ZM86.7036 60.2039C85.7132 59.0177 80.661 58.8006 77.4834 59.1539C74.3058 59.5072 69.5247 61.2846 69.9397 62.3553C70.1531 62.7565 70.588 62.5765 72.7742 62.3965C74.9667 62.1959 81.1076 61.4885 82.387 63.019C83.6665 64.5495 80.4268 71.9206 79.8362 73.1069C79.2635 74.2932 80.055 74.5994 81.1301 73.8094C82.1908 73.0194 84.1104 70.9737 85.3989 68.0786C86.6784 65.1686 87.4591 61.112 86.7036 60.2039Z" fill="#FF9900"/>
<path fill-rule="evenodd" clip-rule="evenodd" d="M50.9033 34.0805C50.9033 38.2392 51.0168 41.7074 48.7514 45.4001C46.9226 48.4033 44.0266 50.25 40.7908 50.25C36.3726 50.25 33.804 47.127 33.804 42.5186C33.804 33.4201 42.5899 31.7686 50.9068 31.7686L50.9033 34.0805ZM62.5004 60.0989C61.7398 60.7293 60.6402 60.7747 59.7826 60.3542C55.9634 57.4118 55.284 56.0456 53.181 53.2377C46.8702 59.2132 42.4039 61 34.2163 61C24.5405 61 17 55.4597 17 44.3645C17 35.702 22.0654 29.8019 29.2653 26.9195C35.5114 24.3669 44.2327 23.9164 50.8989 23.2106V21.833C50.8989 19.295 51.1094 16.2927 49.5077 14.1007C48.0998 12.134 45.4134 11.3237 43.051 11.3237C38.666 11.3237 34.7542 13.4103 33.7936 17.7343C33.5988 18.6954 32.8381 19.641 31.8032 19.6856L20.6384 18.5754C19.6995 18.3793 18.6646 17.6743 18.9231 16.3381C21.4986 3.78348 33.715 0 44.6527 0C50.2518 0 57.5652 1.37758 61.9825 5.31502C67.5816 10.1641 67.048 16.6347 67.048 23.6765V40.3112C67.048 45.311 69.2811 47.5022 71.3841 50.2055C72.1282 51.1657 72.2907 52.3221 71.3518 53.0416C69.006 54.8584 64.8314 58.2367 62.531 60.1281L62.4987 60.0981" fill="black"/>
</svg>
