<svg width="24" height="21" viewBox="0 0 24 21" fill="none" xmlns="http://www.w3.org/2000/svg">
<path d="M3.40279 6.16198C3.22239 6.16198 3.04427 6.08772 2.9287 5.9472C2.73505 5.71177 2.7901 5.37963 3.05162 5.20529L6.30188 3.03944C6.56347 2.86516 6.93252 2.91471 7.12624 3.15007C7.31995 3.3855 7.26483 3.71765 7.00331 3.89199L3.75305 6.05784C3.64753 6.1281 3.5246 6.16198 3.40279 6.16198Z" fill="url(#paint0_linear_66_601)"/>
<path d="M3.72416 8.94521C3.53946 8.94521 3.3576 8.86734 3.24272 8.72132C3.05462 8.48228 3.11744 8.15125 3.38298 7.98197L10.3473 3.54263C10.613 3.37341 10.9807 3.42988 11.1688 3.66893C11.3569 3.90798 11.2941 4.239 11.0286 4.40829L4.0643 8.84762C3.96085 8.91357 3.84188 8.94521 3.72416 8.94521Z" fill="url(#paint1_linear_66_601)"/>
<path d="M23.0134 0H0.986587C0.44393 0 0 0.399599 0 0.887991V7.24969V10.3072V16.1637C0 16.6521 0.44393 17.0517 0.986587 17.0517H9.028C9.028 17.0517 9.31594 17.0362 9.31594 17.2896C9.31594 17.585 9.31594 18.2734 9.31594 18.6195C9.31594 18.7454 9.3054 18.826 9.14073 18.826C8.61694 18.826 7.04561 18.826 7.04561 18.826C6.58615 18.826 6.21363 19.1612 6.21363 19.5747C6.21363 19.9883 6.58615 20.3235 7.04561 20.3235H16.9545C17.4139 20.3235 17.7864 19.9883 17.7864 19.5747C17.7864 19.1612 17.4139 18.826 16.9545 18.826C16.9545 18.826 15.3761 18.826 14.8404 18.826C14.7191 18.826 14.6841 18.7596 14.6841 18.6832C14.6841 18.3722 14.6841 17.5714 14.6841 17.2468C14.6841 17.0479 14.8909 17.0517 14.8909 17.0517H23.0133C23.556 17.0517 24 16.6521 24 16.1637V0.887991C24.0001 0.399599 23.5561 0 23.0134 0ZM13.0202 17.2936C13.0202 17.6082 13.0202 18.367 13.0202 18.665C13.0202 18.7365 12.98 18.8208 12.8586 18.8208C12.4221 18.8208 11.6088 18.8208 11.1383 18.8208C10.9866 18.8208 10.9799 18.7489 10.9799 18.6351C10.9799 18.2986 10.9799 17.5957 10.9799 17.3052C10.9799 17.1102 11.238 17.1033 11.238 17.1033H12.8023C12.8023 17.1033 13.0202 17.0908 13.0202 17.2936ZM12 16.0698C11.4638 16.0698 11.0292 15.6786 11.0292 15.1961C11.0292 14.7135 11.4638 14.3223 12 14.3223C12.5362 14.3223 12.9709 14.7135 12.9709 15.1961C12.9709 15.6786 12.5362 16.0698 12 16.0698ZM22.5478 12.698C22.5478 13.1864 22.1038 13.586 21.5612 13.586H12H2.43887C1.89622 13.586 1.45229 13.1864 1.45229 12.698V2.35579C1.45229 1.8674 1.89622 1.4678 2.43887 1.4678H21.5612C22.1038 1.4678 22.5478 1.8674 22.5478 2.35579V12.698Z" fill="url(#paint2_linear_66_601)"/>
<defs>
<linearGradient id="paint0_linear_66_601" x1="5.02748" y1="2.9353" x2="5.02748" y2="6.16198" gradientUnits="userSpaceOnUse">
<stop stop-color="#FFBF00"/>
<stop offset="1" stop-color="#F2A50C"/>
</linearGradient>
<linearGradient id="paint1_linear_66_601" x1="7.20578" y1="3.44507" x2="7.20578" y2="8.94521" gradientUnits="userSpaceOnUse">
<stop stop-color="#FFBF00"/>
<stop offset="1" stop-color="#F2A50C"/>
</linearGradient>
<linearGradient id="paint2_linear_66_601" x1="12" y1="0" x2="12" y2="20.3235" gradientUnits="userSpaceOnUse">
<stop stop-color="#FFBF00"/>
<stop offset="1" stop-color="#F2A50C"/>
</linearGradient>
</defs>
</svg>
