<svg width="72" height="72" viewBox="0 0 72 72" fill="none" xmlns="http://www.w3.org/2000/svg">
<path d="M0.5 0.5H71.5V71.5H0.5V0.5Z" fill="#0D8BFF"/>
<path d="M71 1V71H1V1H71ZM72 0H0V72H72V0Z" fill="#1769E5"/>
<path d="M12 28.154H23.077V60H12V28.154ZM17.538 24.923C14.215 24.923 12 22.569 12 19.661C12 16.753 14.215 14.538 17.538 14.538C20.861 14.538 22.938 16.753 23.076 19.661C23.077 22.569 21 24.923 17.538 24.923ZM60.054 60H49.119C49.119 60 49.119 43.461 49.119 42.23C49.119 40.999 48.982 36.762 44.335 36.762C40.234 36.762 39.551 40.726 39.551 42.23C39.551 43.734 39.551 60 39.551 60H28.615V28.561H39.55V32.798C39.55 32.798 41.737 28.561 48.161 28.561C54.722 28.561 60.053 33.072 60.053 42.23L60.054 60Z" fill="white"/>
</svg>
