<svg width="23" height="22" viewBox="0 0 23 22" fill="none" xmlns="http://www.w3.org/2000/svg">
<path d="M23 15.5735V5.63131C23 4.21186 22.236 2.97102 21.0947 2.28806C21.0307 2.74037 20.843 3.17966 20.5198 3.54841L20.1136 4.02223C20.6304 4.36546 20.9766 4.95836 20.9766 5.63182V15.575C20.9766 16.6342 20.1276 17.4863 19.0694 17.4863H3.93715C2.87644 17.4863 1.98134 16.6337 1.98134 15.575V5.63131C1.98134 4.5721 2.87644 3.70301 3.93715 3.70301H11.8485L13.5887 1.72168H3.93715C1.7762 1.72218 0 3.47036 0 5.63131V15.574C0 16.8944 0.66745 18.0662 1.67163 18.7762L1.55205 18.7777C1.55004 18.7777 1.54754 18.7777 1.54654 18.7777C0.705976 18.7777 0.0200135 19.4561 0.0195132 20.2992C0.0160108 21.1433 0.69697 21.8207 1.54204 21.8232L21.4029 21.8788C21.4064 21.8788 21.4064 21.8788 21.4089 21.8788C22.2505 21.8788 22.9335 21.2053 22.937 20.3632C22.9395 19.5187 22.2575 18.8367 21.4139 18.8337L21.2403 18.8347C22.2955 18.1322 23 16.9334 23 15.5735Z" fill="url(#paint0_linear_66_599)"/>
<path d="M9.93111 6.80108C8.82887 6.80108 7.73363 7.25739 6.9501 8.15099C6.28265 8.91201 5.96043 9.85664 5.97044 10.7948C5.97144 10.9159 6.04699 11.0234 6.16057 11.064C6.19259 11.0755 6.22611 11.081 6.25864 11.081C6.34219 11.081 6.42375 11.0444 6.48028 10.9784C6.48929 10.9664 6.4993 10.9554 6.5093 10.9439C6.99363 10.391 7.67259 10.1083 8.35405 10.1083C8.92843 10.1083 9.50482 10.3084 9.97064 10.7167C10.9898 11.6103 11.0914 13.1589 10.1983 14.1781C10.1888 14.1896 10.1783 14.2016 10.1673 14.2116C10.0857 14.3011 10.0692 14.4307 10.1242 14.5383C10.1738 14.6359 10.2728 14.6949 10.3799 14.6949C10.3919 14.6949 10.4044 14.6944 10.4154 14.6929C11.3466 14.5788 12.2417 14.1375 12.9091 13.3755C13.9528 12.1847 14.1545 10.5446 13.5641 9.18219L19.3865 2.55272C19.7232 2.16996 19.6847 1.58707 19.3019 1.25084L18.1361 0.228654C17.967 0.0805543 17.7504 0 17.5277 0C17.5077 0 17.4872 0.000500311 17.4672 0.00200132C17.2235 0.0175118 16.9954 0.130088 16.8333 0.314212L11.0058 6.95018C10.6541 6.85062 10.2914 6.80108 9.93111 6.80108Z" fill="url(#paint1_linear_66_599)"/>
<defs>
<linearGradient id="paint0_linear_66_599" x1="11.5" y1="1.72168" x2="11.5" y2="21.8788" gradientUnits="userSpaceOnUse">
<stop stop-color="#FFB60D"/>
<stop offset="1" stop-color="#E59317"/>
</linearGradient>
<linearGradient id="paint1_linear_66_599" x1="12.7931" y1="0" x2="12.7931" y2="14.6949" gradientUnits="userSpaceOnUse">
<stop stop-color="#FFB60D"/>
<stop offset="1" stop-color="#E59317"/>
</linearGradient>
</defs>
</svg>
