<svg width="312" height="39" viewBox="0 0 312 39" fill="none" xmlns="http://www.w3.org/2000/svg">
<path d="M13.8039 11.684C13.8039 13.952 12.5439 15.428 9.73589 15.428H5.52389V8.048H9.73589C12.5439 8.048 13.8039 9.452 13.8039 11.684ZM0.483887 3.872V29H5.52389V19.208H7.89989L13.4439 29H19.2759L13.2639 18.812C17.2959 17.732 18.9879 14.636 18.9879 11.576C18.9879 7.364 15.9639 3.872 9.91589 3.872H0.483887Z" fill="white"/>
<path d="M42.8064 19.028C42.8064 12.728 38.3064 8.732 32.5464 8.732C26.7864 8.732 22.2864 12.728 22.2864 19.028C22.2864 25.292 26.6424 29.324 32.4024 29.324C38.1984 29.324 42.8064 25.292 42.8064 19.028ZM27.3984 19.028C27.3984 15.032 29.8104 13.124 32.4744 13.124C35.1384 13.124 37.6224 15.032 37.6224 19.028C37.6224 22.988 35.0664 24.932 32.4024 24.932C29.7024 24.932 27.3984 22.988 27.3984 19.028Z" fill="white"/>
<path d="M45.2074 18.956C45.2074 25.184 49.2394 29.324 54.3154 29.324C57.4474 29.324 59.6794 27.884 60.8674 26.048V29H65.9794V2.36H60.8674V11.828C59.4994 9.956 56.9794 8.732 54.3514 8.732C49.2394 8.732 45.2074 12.728 45.2074 18.956ZM60.9034 19.028C60.9034 22.808 58.3834 24.896 55.6114 24.896C52.9114 24.896 50.3554 22.736 50.3554 18.956C50.3554 15.176 52.9114 13.16 55.6114 13.16C58.3834 13.16 60.9034 15.248 60.9034 19.028Z" fill="white"/>
<path d="M75.9419 19.064C75.9419 15.212 77.7419 14.06 80.7299 14.06H82.0619V8.768C79.2899 8.768 77.2019 10.1 75.9419 12.152V9.056H70.9019V29H75.9419V19.064Z" fill="white"/>
<path d="M85.4565 29H90.4965V9.056H85.4565V29ZM88.0125 6.68C89.7765 6.68 91.1085 5.384 91.1085 3.728C91.1085 2.072 89.7765 0.776001 88.0125 0.776001C86.2125 0.776001 84.9165 2.072 84.9165 3.728C84.9165 5.384 86.2125 6.68 88.0125 6.68Z" fill="white"/>
<path d="M94.1801 18.956C94.1801 25.184 98.2121 29.324 103.288 29.324C106.42 29.324 108.688 27.776 109.876 26.048V29.144C109.876 32.852 107.716 34.436 104.944 34.436C102.424 34.436 100.552 33.248 100.048 31.448H95.0441C95.5481 36.02 99.4721 38.828 105.088 38.828C111.64 38.828 114.952 34.544 114.952 29.144V9.056H109.876V11.9C108.688 10.172 106.42 8.732 103.288 8.732C98.2121 8.732 94.1801 12.728 94.1801 18.956ZM109.876 19.028C109.876 22.808 107.356 24.896 104.584 24.896C101.884 24.896 99.3281 22.736 99.3281 18.956C99.3281 15.176 101.884 13.16 104.584 13.16C107.356 13.16 109.876 15.248 109.876 19.028Z" fill="white"/>
<path d="M139.135 19.028C139.135 12.728 134.635 8.732 128.875 8.732C123.115 8.732 118.615 12.728 118.615 19.028C118.615 25.292 122.971 29.324 128.731 29.324C134.527 29.324 139.135 25.292 139.135 19.028ZM123.727 19.028C123.727 15.032 126.139 13.124 128.803 13.124C131.467 13.124 133.951 15.032 133.951 19.028C133.951 22.988 131.395 24.932 128.731 24.932C126.031 24.932 123.727 22.988 123.727 19.028Z" fill="white"/>
<path d="M142.832 29H147.872V2.36H142.832V29Z" fill="white"/>
<path d="M152.851 29H157.891V9.056H152.851V29ZM155.407 6.68C157.171 6.68 158.503 5.384 158.503 3.728C158.503 2.072 157.171 0.776001 155.407 0.776001C153.607 0.776001 152.311 2.072 152.311 3.728C152.311 5.384 153.607 6.68 155.407 6.68Z" fill="white"/>
<path d="M190.771 29H195.811V17.3C195.811 11.792 192.427 8.768 187.639 8.768C184.723 8.768 182.095 10.316 180.799 12.584C179.431 10.1 176.875 8.768 173.779 8.768C171.295 8.768 169.171 9.812 167.911 11.468V9.056H162.871V29H167.911V17.984C167.911 14.816 169.675 13.16 172.411 13.16C175.075 13.16 176.839 14.816 176.839 17.984V29H181.879V17.984C181.879 14.816 183.643 13.16 186.343 13.16C189.007 13.16 190.771 14.816 190.771 17.984V29Z" fill="white"/>
<path d="M199.297 18.956C199.297 25.184 203.329 29.324 208.369 29.324C211.537 29.324 213.805 27.812 214.993 26.084V29H220.069V9.056H214.993V11.9C213.805 10.244 211.609 8.732 208.405 8.732C203.329 8.732 199.297 12.728 199.297 18.956ZM214.993 19.028C214.993 22.808 212.473 24.896 209.701 24.896C207.001 24.896 204.445 22.736 204.445 18.956C204.445 15.176 207.001 13.16 209.701 13.16C212.473 13.16 214.993 15.248 214.993 19.028Z" fill="white"/>
<path d="M230.284 26.3C230.284 24.644 228.988 23.348 227.224 23.348C225.388 23.348 224.092 24.644 224.092 26.3C224.092 27.956 225.388 29.252 227.224 29.252C228.988 29.252 230.284 27.956 230.284 26.3Z" fill="white"/>
<path d="M235.135 22.808C235.135 27.38 237.691 29 241.507 29H244.675V24.752H242.335C240.751 24.752 240.211 24.176 240.211 22.844V13.196H244.675V9.056H240.211V4.124H235.135V9.056H232.759V13.196H235.135V22.808Z" fill="white"/>
<path d="M256.868 12.872C259.46 12.872 261.548 14.528 261.62 17.156H252.152C252.548 14.42 254.456 12.872 256.868 12.872ZM266.336 22.736H260.9C260.252 24.068 259.064 25.148 256.904 25.148C254.384 25.148 252.368 23.492 252.116 20.54H266.696C266.804 19.892 266.84 19.244 266.84 18.596C266.84 12.656 262.772 8.732 257.012 8.732C251.108 8.732 247.004 12.728 247.004 19.028C247.004 25.292 251.216 29.324 257.012 29.324C261.944 29.324 265.256 26.408 266.336 22.736Z" fill="white"/>
<path d="M269.223 19.028C269.223 25.292 273.327 29.324 279.087 29.324C284.055 29.324 287.403 26.516 288.483 22.268H283.047C282.435 24.068 281.139 25.004 279.051 25.004C276.243 25.004 274.371 22.916 274.371 19.028C274.371 15.14 276.243 13.016 279.051 13.016C281.139 13.016 282.471 14.096 283.047 15.788H288.483C287.403 11.324 284.055 8.732 279.087 8.732C273.327 8.732 269.223 12.764 269.223 19.028Z" fill="white"/>
<path d="M292.175 29H297.215V17.984C297.215 14.78 298.979 13.052 301.715 13.052C304.379 13.052 306.143 14.78 306.143 17.984V29H311.183V17.3C311.183 11.792 307.907 8.768 303.407 8.768C300.743 8.768 298.511 9.848 297.215 11.54V2.36H292.175V29Z" fill="white"/>
</svg>
