<svg width="41" height="44" viewBox="0 0 41 44" fill="none" xmlns="http://www.w3.org/2000/svg">
<path d="M0 43.2V13.44H5.7L6.24 19.08C7.28 17.12 8.72 15.58 10.56 14.46C12.44 13.3 14.7 12.72 17.34 12.72V19.38H15.6C13.84 19.38 12.26 19.68 10.86 20.28C9.5 20.84 8.4 21.82 7.56 23.22C6.76 24.58 6.36 26.48 6.36 28.92V43.2H0Z" fill="white"/>
<path d="M20.993 43.2V0H27.353V43.2H20.993Z" fill="white"/>
<path d="M36.127 43.56C34.927 43.56 33.927 43.18 33.127 42.42C32.367 41.62 31.987 40.68 31.987 39.6C31.987 38.48 32.367 37.54 33.127 36.78C33.927 35.98 34.927 35.58 36.127 35.58C37.327 35.58 38.307 35.98 39.067 36.78C39.827 37.54 40.207 38.48 40.207 39.6C40.207 40.68 39.827 41.62 39.067 42.42C38.307 43.18 37.327 43.56 36.127 43.56Z" fill="#1769E5"/>
</svg>
